#tb 0: 1/1000000
0,          0,          0,        0,   614400, 0x00000000
0,      33360,      33360,        0,   614400, 0x00000000
0,      66720,      66720,        0,   614400, 0xa17ea4ec
0,     100080,     100080,        0,   614400, 0x4fd207fb
0,     133440,     133440,        0,   614400, 0xd7a510fb
0,     166800,     166800,        0,   614400, 0xe901e2f4
0,     200160,     200160,        0,   614400, 0x4ac5d3c4
0,     233520,     233520,        0,   614400, 0x32e3e99c
0,     266880,     266880,        0,   614400, 0x7a2ff20c
0,     300240,     300240,        0,   614400, 0x59941193
0,     333600,     333600,        0,   614400, 0x92773a2b
0,     366960,     366960,        0,   614400, 0x4cd14313
0,     400320,     400320,        0,   614400, 0x2a093fa3
0,     433680,     433680,        0,   614400, 0xf68b8463
0,     467040,     467040,        0,   614400, 0xa9e1969b
0,     500400,     500400,        0,   614400, 0x461996bb
0,     533760,     533760,        0,   614400, 0xae58d053
0,     567120,     567120,        0,   614400, 0x7693015a
0,     600480,     600480,        0,   614400, 0x0b3507fa
0,     633840,     633840,        0,   614400, 0xff5c2492
0,     667200,     667200,        0,   614400, 0x636e3e32
0,     700560,     700560,        0,   614400, 0x1acd6d0a
0,     733920,     733920,        0,   614400, 0x67039232
0,     767280,     767280,        0,   614400, 0x8ab9c75a
0,     800640,     800640,        0,   614400, 0xe824bbe2
0,     834000,     834000,        0,   614400, 0x5133e9ea
0,     867360,     867360,        0,   614400, 0xcecf1249
0,     900720,     900720,        0,   614400, 0xe6d928c1
0,     934080,     934080,        0,   614400, 0x8da46ff1
0,     967440,     967440,        0,   614400, 0x1c778319
0,    1000800,    1000800,        0,   614400, 0x35a19451
0,    1034160,    1034160,        0,   614400, 0x5145d1b9
0,    1067520,    1067520,        0,   614400, 0x146ee231
0,    1100880,    1100880,        0,   614400, 0xd9b33380
0,    1134240,    1134240,        0,   614400, 0x8b112ef8
0,    1167600,    1167600,        0,   614400, 0xb9e79ab0
0,    1200960,    1200960,        0,   614400, 0x62d3a498
0,    1234320,    1234320,        0,   614400, 0xaeaaaa58
0,    1267680,    1267680,        0,   614400, 0x8922c440
0,    1301040,    1301040,        0,   614400, 0xd62ef758
0,    1334400,    1334400,        0,   614400, 0x2a53149f
0,    1367760,    1367760,        0,   614400, 0x13da47df
0,    1401120,    1401120,        0,   614400, 0x27c05c3f
0,    1434480,    1434480,        0,   614400, 0x41ff7ca7
0,    1467840,    1467840,        0,   614400, 0x6b0e8a07
0,    1501200,    1501200,        0,   614400, 0xa200ad9f
0,    1534560,    1534560,        0,   614400, 0x9da7cc77
0,    1567920,    1567920,        0,   614400, 0x2f5703be
0,    1601280,    1601280,        0,   614400, 0x91c720f6
0,    1634640,    1634640,        0,   614400, 0x927a882e
